<?xml version="1.0" encoding="utf-8"?>
<!-- Generator: Adobe Illustrator 15.0.0, SVG Export Plug-In . SVG Version: 6.00 Build 0)  -->
<!DOCTYPE svg PUBLIC "-//W3C//DTD SVG 1.1//EN" "http://www.w3.org/Graphics/SVG/1.1/DTD/svg11.dtd">
<svg version="1.1" id="Layer_1" xmlns="http://www.w3.org/2000/svg" xmlns:xlink="http://www.w3.org/1999/xlink" x="0px" y="0px"
     width="89px" height="70px" viewBox="0 0 89 70" enable-background="new 0 0 89 70" xml:space="preserve">
  <symbol  id="arrow" viewBox="-22.295 -16.713 44.59 33.426">
    <path fill="#ffffff" d="M-5.406-16.713c-0.8,0-1.484,0.283-2.049,0.849L-20.951-2.367c-0.801,0.854-1.249,1.647-1.344,2.402
		            c0,0.658,0.448,1.438,1.344,2.332l13.496,13.497c0.565,0.562,1.249,0.849,2.049,0.849c1.226,0,2.381-0.542,3.463-1.625
		            c1.084-1.086,1.625-2.263,1.625-3.534c0-0.848-0.259-1.521-0.777-2.049l-5.018-5.018h25.086c0.99,0,1.791-0.412,2.403-1.236
		            c0.612-0.826,0.919-1.896,0.919-3.216c0-1.271-0.307-2.344-0.919-3.216c-0.612-0.871-1.413-1.312-2.403-1.312H-6.112l5.018-5.018
		            c0.518-0.521,0.777-1.201,0.777-2.049c0-1.271-0.542-2.45-1.625-3.534C-3.025-16.171-4.18-16.713-5.406-16.713z" />
  </symbol>
  <symbol  id="base" viewBox="-155 -155 310 310">
    <path d="M-34.508-4.279c1.037-0.141,2.131-0.295,3.318-0.475C-8.961-8.109-9.402-30.013-9.402-30.013
	     c1.063-8.321,17.784-8.154,19.039-0.396c0,0-0.406,22.573,18.79,27.139c5.904,2.028,22.308,3.041,23.359,3.916
	     C65.667,20.5-71,18.833-55.682,0.646C-53.955-0.354-41.457-2.23-34.508-4.279z"/>
	     <polygon fill="none" points="155,-155 -155,-155 -155,155 155,155 	"/>
  </symbol>
  <symbol  id="bulb" viewBox="-50.25 -50 100.5 100">
    <g>
      <path fill="none" d="M0.971-34.811"/>
      <path d="M0.971-34.811"/>
      <g>
	<polygon fill="none" points="-50.25,-50 -49.75,50 50.25,50 49.75,-50 			"/>
	<path d="M0.264-34.811c3.334,0.003,8.164,0.738,8.623,2.222C9.283-22.251,13.505-8.93,13.505-3.275
		 c0,5.655-1.979,13.159-13.253,13.159S-12.752,2.379-12.752-3.275c0-5.65,4.223-18.976,4.619-29.312
		 c0.458-1.479,5.04-2.219,8.374-2.222L0.264-34.811L0.264-34.811z"/>
      </g>
    </g>
  </symbol>
  <symbol  id="leaf" viewBox="-91.641 -91.641 183.282 183.281">
    <g>
      <polygon fill="none" points="91.641,-91.498 -91.5,-91.641 -91.641,91.498 91.497,91.641 		"/>
      <g>
	<path stroke="#FFFFFF" stroke-width="2" stroke-miterlimit="10" d="M-17.398-26.285c-0.321-10.688,6.128-20.479,16.595-27.328
				                                          c10.86,6.209,17.883,15.604,18.202,26.285C17.719-16.639,11.271-6.848,0.805,0C-10.055-6.209-17.079-15.596-17.398-26.285z"/>
      </g>
    </g>
  </symbol>
  <symbol  id="leaf-thin" viewBox="-91.642 -91.641 183.284 183.281">
    <g>
      <polygon fill="none" points="91.642,-91.498 -91.5,-91.641 -91.642,91.498 91.497,91.641 		"/>
      <path d="M1.086-3.562c0-16.14,9.017-14.987,9.677-27.922c0.49-9.576-4.13-16.975-6.815-21.145
	       c-3.165-4.911-3.585-7.094-3.585-7.094s-1.113,3.734-3.084,6.93c-1.853,3.003-6.475,9.501-6.475,20.633
	       c0,13.322,8.649,14.543,8.649,28.598C-0.545-1.198-0.416,0,0.338,0C0.952,0,1.086-1.557,1.086-3.562z"/>
    </g>
  </symbol>
  <symbol  id="leaf-thin-2" viewBox="-91.641 -91.641 183.282 183.281">
    <g>
      <polygon fill="none" points="91.641,-91.498 -91.499,-91.641 -91.641,91.499 91.497,91.641 		"/>
      <path d="M0-0.186c0.338,0,1.984-3.691,3.936-6.468c2.979-4.231,7.08-7.341,7.518-15.861c0.53-10.448-10.849-23.771-10.849-23.771
	       S-10.794-35.392-10.794-23.25c0,7.955,3.628,12.285,6.251,16.208C-2.375-3.803-0.415-0.186,0-0.186z"/>
    </g>
  </symbol>
  <symbol  id="plus" viewBox="-42.41 -43.125 84.82 86.251">
    <g>
      <path d="M32.596,12.257H12.973v20.577c0,2.713-1.226,5.109-3.676,7.188c-2.452,2.062-5.517,3.104-9.199,3.104
	       c-3.543,0-6.607-1.041-9.199-3.104c-2.585-2.071-3.879-4.478-3.879-7.188V12.257h-19.824c-2.863,0-5.18-1.185-6.95-3.562
	       c-1.77-2.396-2.656-5.314-2.656-8.791c0-3.606,0.886-6.531,2.656-8.785c1.77-2.26,4.087-3.379,6.95-3.379h19.824v-20.793
	       c0-3.021,1.256-5.438,3.78-7.289c2.52-1.861,5.62-2.783,9.298-2.783c3.812,0,6.913,0.922,9.301,2.783
	       c2.381,1.854,3.574,4.271,3.574,7.289v20.793h19.623c2.592,0,4.87,1.146,6.848,3.471c1.977,2.324,2.966,5.217,2.966,8.693
	       c0,3.346-0.989,6.244-2.966,8.688C37.466,11.035,35.187,12.257,32.596,12.257z"/>
    </g>
  </symbol>
  <use xlink:href="#plus"  width="84.82" height="86.251" x="-42.41" y="-43.125" transform="matrix(1 0 0 -1 -161.998 34.9946)" overflow="visible"/>
  <use xlink:href="#bulb"  width="100.5" height="100" id="XMLID_1_" x="-50.25" y="-50" transform="matrix(1 0 0 -1 203.1113 185.373)" overflow="visible"/>
  <use xlink:href="#arrow"  width="44.59" height="33.426" x="-22.295" y="-16.713" transform="matrix(1 0 0 -1 -161.1353 188.8105)" overflow="visible"/>
  <use xlink:href="#leaf"  width="183.282" height="183.281" id="XMLID_2_" x="-91.641" y="-91.641" transform="matrix(1 0 0 -1 -156.6406 310.8359)" overflow="visible"/>
  <use xlink:href="#leaf-thin"  width="183.284" height="183.281" id="XMLID_3_" x="-91.642" y="-91.641" transform="matrix(1 0 0 -1 -541.5005 -136)" overflow="visible"/>
  <use xlink:href="#leaf-thin-2"  width="183.282" height="183.281" id="XMLID_4_" x="-91.641" y="-91.641" transform="matrix(1 0 0 -1 238.332 374.4062)" overflow="visible"/>
  <use xlink:href="#base"  width="310" height="310" id="XMLID_5_" x="-155" y="-155" transform="matrix(1 0 0 -1 128 -139)" overflow="visible"/>
</svg>
